<mxfile host="app.diagrams.net" modified="2020-10-06T12:28:57.515Z" agent="5.0 (Windows NT 6.1; WOW64) AppleWebKit/537.36 (KHTML, like Gecko) Chrome/85.0.4183.123 Safari/537.36" etag="v63RdxlIGjS4g-Lo52dd" compressed="false" version="13.7.7" type="github">
  <diagram name="Page-1" id="97916047-d0de-89f5-080d-49f4d83e522f">
    <mxGraphModel dx="1177" dy="626" grid="1" gridSize="10" guides="1" tooltips="1" connect="1" arrows="1" fold="1" page="1" pageScale="1.5" pageWidth="1169" pageHeight="827" background="#ffffff" math="0" shadow="0">
      <root>
        <mxCell id="0" />
        <mxCell id="1" parent="0" />
        <mxCell id="2" value="ЗАВЕДУЮЩИЙ" style="strokeColor=none;shadow=1;gradientColor=none;fontStyle=1;fontColor=#FFFFFF;fontSize=16;fontFamily=Roboto Condensed;fontSource=https%3A%2F%2Ffonts.googleapis.com%2Fcss%3Ffamily%3DRoboto%2BCondensed;fillColor=#4F88B6;" parent="1" vertex="1">
          <mxGeometry x="600" y="320" width="280" height="76" as="geometry" />
        </mxCell>
        <mxCell id="3" value="ОРГАНЫ ОБЩЕСТВЕННОГО САМОУПРАВЛЕНИЯ" style="strokeColor=none;shadow=1;gradientColor=none;fontStyle=1;fontColor=#FFFFFF;fontSize=16;fontFamily=Roboto Condensed;fontSource=https%3A%2F%2Ffonts.googleapis.com%2Fcss%3Ffamily%3DRoboto%2BCondensed;fillColor=#4F88B6;" parent="1" vertex="1">
          <mxGeometry x="280" y="440" width="920" height="75" as="geometry" />
        </mxCell>
        <mxCell id="8" value="ПЕДАГОГИЧЕСКИЙ СОВЕТ" style="strokeColor=none;shadow=1;gradientColor=none;fontStyle=1;fontColor=#FFFFFF;fontSize=16;fontFamily=Roboto Condensed;fontSource=https%3A%2F%2Ffonts.googleapis.com%2Fcss%3Ffamily%3DRoboto%2BCondensed;fillColor=#4F88B6;" parent="1" vertex="1">
          <mxGeometry x="280" y="560" width="280" height="75" as="geometry" />
        </mxCell>
        <mxCell id="9" value="ПЕДАГОГИ" style="strokeColor=none;shadow=1;gradientColor=none;fontStyle=1;fontColor=#FFFFFF;fontSize=16;fontFamily=Roboto Condensed;fontSource=https%3A%2F%2Ffonts.googleapis.com%2Fcss%3Ffamily%3DRoboto%2BCondensed;fillColor=#4F88B6;" parent="1" vertex="1">
          <mxGeometry x="280" y="680" width="280" height="75" as="geometry" />
        </mxCell>
        <mxCell id="13" value="СОВЕТ УЧРЕЖДЕНИЯ" style="strokeColor=none;shadow=1;gradientColor=none;fontStyle=1;fontColor=#FFFFFF;fontSize=16;fontFamily=Roboto Condensed;fontSource=https%3A%2F%2Ffonts.googleapis.com%2Fcss%3Ffamily%3DRoboto%2BCondensed;fillColor=#4F88B6;" parent="1" vertex="1">
          <mxGeometry x="599.9999999999999" y="560" width="280" height="75" as="geometry" />
        </mxCell>
        <mxCell id="14" value="РОДИТЕЛИ&#xa;СОТРУДНИКИ" style="strokeColor=none;shadow=1;gradientColor=none;fontStyle=1;fontColor=#FFFFFF;fontSize=16;fontFamily=Roboto Condensed;fontSource=https%3A%2F%2Ffonts.googleapis.com%2Fcss%3Ffamily%3DRoboto%2BCondensed;fillColor=#4F88B6;" parent="1" vertex="1">
          <mxGeometry x="599.9999999999999" y="680" width="280" height="75" as="geometry" />
        </mxCell>
        <mxCell id="18" value="ОБЩЕЕ СОБРАНИЕ" style="strokeColor=none;shadow=1;gradientColor=none;fontStyle=1;fontColor=#FFFFFF;fontSize=16;fontFamily=Roboto Condensed;fontSource=https%3A%2F%2Ffonts.googleapis.com%2Fcss%3Ffamily%3DRoboto%2BCondensed;fillColor=#4F88B6;" parent="1" vertex="1">
          <mxGeometry x="920" y="560" width="280" height="75" as="geometry" />
        </mxCell>
        <mxCell id="19" value="РОДИТЕЛИ&#xa;СОТРУДНИКИ&#xa;ПРЕДСТАВИТЕЛИ СОЦИУМА" style="strokeColor=none;shadow=1;gradientColor=none;fontStyle=1;fontColor=#FFFFFF;fontSize=16;fontFamily=Roboto Condensed;fontSource=https%3A%2F%2Ffonts.googleapis.com%2Fcss%3Ffamily%3DRoboto%2BCondensed;fillColor=#4F88B6;" parent="1" vertex="1">
          <mxGeometry x="920" y="680" width="280" height="75" as="geometry" />
        </mxCell>
        <mxCell id="20" value="ВОСПИТАННИКИ И ИХ РОДИТЕЛИ" style="strokeColor=none;shadow=1;gradientColor=none;fontStyle=1;fontColor=#FFFFFF;fontSize=16;fontFamily=Roboto Condensed;fontSource=https%3A%2F%2Ffonts.googleapis.com%2Fcss%3Ffamily%3DRoboto%2BCondensed;fillColor=#4F88B6;" parent="1" vertex="1">
          <mxGeometry x="279.99999999999983" y="800" width="920" height="75" as="geometry" />
        </mxCell>
        <mxCell id="29" value="" style="edgeStyle=elbowEdgeStyle;elbow=vertical;strokeWidth=4;endArrow=none;endFill=0;fontStyle=1;strokeColor=#4F88B6;" parent="1" source="2" target="3" edge="1">
          <mxGeometry x="22" y="165.5" width="100" height="100" as="geometry">
            <mxPoint x="22" y="265.5" as="sourcePoint" />
            <mxPoint x="122" y="165.5" as="targetPoint" />
          </mxGeometry>
        </mxCell>
        <mxCell id="31" value="" style="edgeStyle=elbowEdgeStyle;elbow=vertical;strokeWidth=4;endArrow=none;endFill=0;fontStyle=1;entryX=0.5;entryY=0;entryDx=0;entryDy=0;strokeColor=#4F88B6;" parent="1" source="3" target="8" edge="1">
          <mxGeometry x="22" y="165.5" width="100" height="100" as="geometry">
            <mxPoint x="22" y="265.5" as="sourcePoint" />
            <mxPoint x="402" y="455.5" as="targetPoint" />
            <Array as="points">
              <mxPoint x="520" y="483" />
            </Array>
          </mxGeometry>
        </mxCell>
        <mxCell id="38" value="" style="edgeStyle=elbowEdgeStyle;elbow=vertical;strokeWidth=4;endArrow=none;endFill=0;fontStyle=1;strokeColor=#4F88B6;" parent="1" source="8" target="9" edge="1">
          <mxGeometry x="62" y="165.5" width="100" height="100" as="geometry">
            <mxPoint x="62" y="265.5" as="sourcePoint" />
            <mxPoint x="162" y="165.5" as="targetPoint" />
          </mxGeometry>
        </mxCell>
        <mxCell id="42" value="" style="edgeStyle=elbowEdgeStyle;elbow=vertical;strokeWidth=4;endArrow=none;endFill=0;fontStyle=1;strokeColor=#4F88B6;" parent="1" source="13" target="14" edge="1">
          <mxGeometry x="190" y="165.5" width="100" height="100" as="geometry">
            <mxPoint x="190" y="265.5" as="sourcePoint" />
            <mxPoint x="290" y="165.5" as="targetPoint" />
          </mxGeometry>
        </mxCell>
        <mxCell id="43" value="" style="edgeStyle=elbowEdgeStyle;elbow=vertical;strokeWidth=4;endArrow=none;endFill=0;fontStyle=1;exitX=0.5;exitY=1;exitDx=0;exitDy=0;entryX=0.5;entryY=0;entryDx=0;entryDy=0;strokeColor=#4F88B6;" parent="1" source="14" target="20" edge="1">
          <mxGeometry x="190" y="175.5" width="100" height="100" as="geometry">
            <mxPoint x="190" y="275.5" as="sourcePoint" />
            <mxPoint x="772" y="795.5" as="targetPoint" />
            <Array as="points">
              <mxPoint x="780" y="770" />
            </Array>
          </mxGeometry>
        </mxCell>
        <mxCell id="46" value="" style="edgeStyle=elbowEdgeStyle;elbow=vertical;strokeWidth=4;endArrow=none;endFill=0;fontStyle=1;strokeColor=#4F88B6;" parent="1" source="18" target="19" edge="1">
          <mxGeometry x="220" y="165.5" width="100" height="100" as="geometry">
            <mxPoint x="220" y="265.5" as="sourcePoint" />
            <mxPoint x="320" y="165.5" as="targetPoint" />
          </mxGeometry>
        </mxCell>
        <mxCell id="54" value="" style="elbow=vertical;strokeWidth=4;endArrow=none;endFill=0;fontStyle=1;strokeColor=#4F88B6;" parent="1" source="3" target="13" edge="1">
          <mxGeometry x="22" y="165.5" width="100" height="100" as="geometry">
            <mxPoint x="22" y="265.5" as="sourcePoint" />
            <mxPoint x="772" y="530" as="targetPoint" />
          </mxGeometry>
        </mxCell>
        <mxCell id="55" value="" style="edgeStyle=elbowEdgeStyle;elbow=vertical;strokeWidth=4;endArrow=none;endFill=0;fontStyle=1;entryX=0.5;entryY=0;entryDx=0;entryDy=0;strokeColor=#4F88B6;" parent="1" source="3" target="18" edge="1">
          <mxGeometry x="22" y="165.5" width="100" height="100" as="geometry">
            <mxPoint x="22" y="265.5" as="sourcePoint" />
            <mxPoint x="1050" y="520" as="targetPoint" />
            <Array as="points">
              <mxPoint x="1100" y="480" />
              <mxPoint x="1020" y="480" />
            </Array>
          </mxGeometry>
        </mxCell>
        <mxCell id="-YSsNaTIa-xBHhpinbjy-57" value="" style="edgeStyle=elbowEdgeStyle;elbow=vertical;strokeWidth=4;endArrow=none;endFill=0;fontStyle=1;exitX=0.5;exitY=1;exitDx=0;exitDy=0;entryX=0.5;entryY=0;entryDx=0;entryDy=0;strokeColor=#4F88B6;" edge="1" parent="1">
          <mxGeometry x="509.58" y="175.5" width="100" height="100" as="geometry">
            <mxPoint x="1059.5800000000002" y="755" as="sourcePoint" />
            <mxPoint x="1059.5799999999997" y="800" as="targetPoint" />
            <Array as="points">
              <mxPoint x="1099.58" y="770" />
            </Array>
          </mxGeometry>
        </mxCell>
        <mxCell id="-YSsNaTIa-xBHhpinbjy-58" value="" style="edgeStyle=elbowEdgeStyle;elbow=vertical;strokeWidth=4;endArrow=none;endFill=0;fontStyle=1;exitX=0.5;exitY=1;exitDx=0;exitDy=0;entryX=0.5;entryY=0;entryDx=0;entryDy=0;strokeColor=#4F88B6;" edge="1" parent="1">
          <mxGeometry x="-130.42000000000002" y="175.5" width="100" height="100" as="geometry">
            <mxPoint x="419.5800000000002" y="755" as="sourcePoint" />
            <mxPoint x="419.57999999999976" y="800" as="targetPoint" />
            <Array as="points">
              <mxPoint x="459.58" y="770" />
            </Array>
          </mxGeometry>
        </mxCell>
      </root>
    </mxGraphModel>
  </diagram>
</mxfile>
